<?xml version="1.0" standalone="no"?>
<!DOCTYPE svg PUBLIC "-//W3C//DTD SVG 20010904//EN"
 "http://www.w3.org/TR/2001/REC-SVG-20010904/DTD/svg10.dtd">
<svg version="1.0" xmlns="http://www.w3.org/2000/svg"
 width="300.000000pt" height="300.000000pt" viewBox="0 0 300.000000 300.000000"
 preserveAspectRatio="xMidYMid meet">
<metadata>
Created by potrace 1.14, written by Peter Selinger 2001-2017
</metadata>
<g transform="translate(0.000000,300.000000) scale(0.100000,-0.100000)"
fill="#000000" stroke="none">
<path d="M1735 2616 c-161 -37 -337 -143 -459 -277 -95 -106 -115 -177 -57
-208 28 -16 31 -15 105 30 37 22 70 39 72 36 3 -3 -36 -112 -86 -243 -135
-351 -190 -519 -301 -914 -55 -195 -111 -390 -124 -433 -29 -91 -31 -117 -9
-162 21 -46 60 -69 114 -69 55 0 104 27 131 71 25 41 79 220 163 543 54 205
71 258 89 272 12 9 59 43 104 75 307 218 564 530 639 778 27 88 25 241 -5 316
-27 71 -87 140 -145 167 -58 28 -155 35 -231 18z m119 -257 c23 -18 26 -27 26
-84 0 -40 -8 -85 -21 -119 -24 -66 -100 -185 -180 -281 -70 -85 -179 -194
-179 -178 0 6 36 114 81 240 85 241 109 325 109 385 0 34 3 38 33 47 55 16
102 13 131 -10z"/>
<path d="M1698 710 c-74 -22 -120 -83 -121 -159 -1 -91 57 -151 146 -151 151
0 239 163 143 264 -17 19 -49 39 -71 45 -45 12 -59 13 -97 1z"/>
</g>
</svg>
